<svg xmlns="http://www.w3.org/2000/svg" viewBox="0 0 64 64" role="img" aria-labelledby="title">
  <title id="title">WhatsApp</title>
  <path fill="#25D366" d="M32 6C17.64 6 6 17.13 6 30.87c0 4.84 1.45 9.36 3.96 13.18L6.4 57.5l14.08-3.38A26.7 26.7 0 0 0 32 56c14.36 0 26-11.13 26-25.13S46.36 6 32 6Z"/>
  <path fill="#fff" d="M43.86 36.94c-.65-.32-3.83-1.84-4.42-2.05-.59-.21-1.02-.32-1.45.32-.43.63-1.66 2.05-2.04 2.47-.37.42-.75.47-1.4.16-.64-.32-2.72-.97-5.18-3.1-1.92-1.66-3.21-3.71-3.59-4.34-.37-.63-.04-.97.28-1.28.29-.28.64-.74.97-1.11.32-.37.43-.63.64-1.05.22-.42.11-.79-.05-1.11-.16-.32-1.45-3.42-1.99-4.68-.52-1.27-1.06-1.1-1.45-1.12l-1.24-.02c-.43 0-1.13.16-1.72.79-.59.63-2.26 2.16-2.26 5.26s2.31 6.1 2.63 6.52c.32.42 4.54 6.79 11 9.52 1.54.65 2.74 1.04 3.68 1.33 1.55.48 2.95.41 4.06.25 1.24-.18 3.83-1.53 4.37-3 .54-1.47.54-2.73.38-3-.16-.26-.59-.42-1.24-.74Z"/>
</svg>
